<svg xmlns="http://www.w3.org/2000/svg" xmlns:xlink="http://www.w3.org/1999/xlink" width="500" zoomAndPan="magnify" viewBox="0 0 375 374.999991" height="500" preserveAspectRatio="xMidYMid meet" version="1.0"><defs><g/><clipPath id="8fe64c1350"><path d="M 59.082031 131 L 92 131 L 92 196 L 59.082031 196 Z M 59.082031 131 " clip-rule="nonzero"/></clipPath><clipPath id="1a9fc8dc79"><path d="M 283 131 L 315.582031 131 L 315.582031 196 L 283 196 Z M 283 131 " clip-rule="nonzero"/></clipPath><clipPath id="9ce11e10ef"><path d="M 175 47.378906 L 200 47.378906 L 200 72 L 175 72 Z M 175 47.378906 " clip-rule="nonzero"/></clipPath><clipPath id="c6f4630f2f"><path d="M 171 223 L 212 223 L 212 255.878906 L 171 255.878906 Z M 171 223 " clip-rule="nonzero"/></clipPath><clipPath id="7edaa5a3bb"><rect x="0" width="188" y="0" height="82"/></clipPath></defs><path fill="#0052d4" d="M 223.613281 163.753906 C 219.179688 163.753906 215.585938 160.160156 215.585938 155.730469 C 215.585938 151.296875 219.179688 147.703125 223.613281 147.703125 C 228.046875 147.703125 231.640625 151.296875 231.640625 155.730469 C 231.640625 160.160156 228.046875 163.753906 223.613281 163.753906 Z M 187.496094 189.796875 C 176.414062 189.796875 167.433594 182.609375 167.433594 173.746094 L 207.5625 173.746094 C 207.5625 182.609375 198.578125 189.796875 187.496094 189.796875 Z M 151.378906 163.753906 C 146.949219 163.753906 143.355469 160.160156 143.355469 155.730469 C 143.355469 151.296875 146.949219 147.703125 151.378906 147.703125 C 155.8125 147.703125 159.40625 151.296875 159.40625 155.730469 C 159.40625 160.160156 155.8125 163.753906 151.378906 163.753906 Z M 219.601562 115.601562 L 155.394531 115.601562 C 142.097656 115.601562 130.058594 120.988281 121.34375 129.707031 C 112.628906 138.417969 107.238281 150.457031 107.238281 163.753906 C 107.238281 190.351562 128.796875 211.910156 155.394531 211.910156 L 219.601562 211.910156 C 232.898438 211.910156 244.9375 206.519531 253.652344 197.804688 C 262.367188 189.089844 267.753906 177.054688 267.753906 163.753906 C 267.753906 137.160156 246.195312 115.601562 219.601562 115.601562 " fill-opacity="1" fill-rule="nonzero"/><path fill="#0052d4" d="M 187.496094 244.015625 L 163.417969 244.015625 C 152.585938 244.015625 142.074219 241.890625 132.179688 237.707031 C 122.621094 233.664062 114.035156 227.875 106.667969 220.507812 C 99.296875 213.136719 93.511719 204.554688 89.46875 194.996094 C 85.28125 185.101562 83.160156 174.589844 83.160156 163.753906 C 83.160156 152.921875 85.28125 142.410156 89.46875 132.515625 C 93.511719 122.957031 99.296875 114.375 106.667969 107.003906 C 114.035156 99.632812 122.621094 93.847656 132.179688 89.804688 C 142.074219 85.617188 152.585938 83.496094 163.417969 83.496094 L 211.574219 83.496094 C 222.40625 83.496094 232.917969 85.617188 242.816406 89.804688 C 252.375 93.847656 260.957031 99.632812 268.324219 107.003906 C 275.695312 114.375 281.480469 122.957031 285.523438 132.515625 C 289.710938 142.410156 291.832031 152.921875 291.832031 163.753906 L 283.808594 163.753906 C 283.808594 123.925781 251.402344 91.523438 211.574219 91.523438 L 163.417969 91.523438 C 123.589844 91.523438 91.1875 123.925781 91.1875 163.753906 C 91.1875 203.585938 123.589844 235.988281 163.417969 235.988281 L 187.496094 235.988281 L 187.496094 244.015625 " fill-opacity="1" fill-rule="nonzero"/><g clip-path="url(#8fe64c1350)"><path fill="#0052d4" d="M 91.1875 195.859375 C 73.457031 195.859375 59.082031 181.484375 59.082031 163.753906 C 59.082031 146.023438 73.457031 131.652344 91.1875 131.652344 L 91.1875 195.859375 " fill-opacity="1" fill-rule="nonzero"/></g><g clip-path="url(#1a9fc8dc79)"><path fill="#0052d4" d="M 283.808594 195.859375 C 301.539062 195.859375 315.910156 181.484375 315.910156 163.753906 C 315.910156 146.023438 301.539062 131.652344 283.808594 131.652344 L 283.808594 195.859375 " fill-opacity="1" fill-rule="nonzero"/></g><path fill="#0052d4" d="M 207.5625 119.613281 C 207.5625 128.476562 198.578125 135.664062 187.496094 135.664062 C 176.414062 135.664062 167.433594 128.476562 167.433594 119.613281 C 167.433594 110.75 176.414062 103.5625 187.496094 103.5625 C 198.578125 103.5625 207.5625 110.75 207.5625 119.613281 " fill-opacity="1" fill-rule="nonzero"/><g clip-path="url(#9ce11e10ef)"><path fill="#0052d4" d="M 199.535156 59.417969 C 199.535156 66.066406 194.144531 71.457031 187.496094 71.457031 C 180.847656 71.457031 175.457031 66.066406 175.457031 59.417969 C 175.457031 52.769531 180.847656 47.378906 187.496094 47.378906 C 194.144531 47.378906 199.535156 52.769531 199.535156 59.417969 " fill-opacity="1" fill-rule="nonzero"/></g><g clip-path="url(#c6f4630f2f)"><path fill="#0052d4" d="M 211.574219 240 C 211.574219 248.867188 202.589844 256.054688 191.511719 256.054688 C 180.429688 256.054688 171.445312 248.867188 171.445312 240 C 171.445312 231.136719 180.429688 223.949219 191.511719 223.949219 C 202.589844 223.949219 211.574219 231.136719 211.574219 240 " fill-opacity="1" fill-rule="nonzero"/></g><path fill="#0052d4" d="M 191.511719 131.824219 L 183.484375 131.824219 L 183.484375 59.417969 L 191.511719 59.417969 L 191.511719 131.824219 " fill-opacity="1" fill-rule="nonzero"/><g transform="matrix(1, 0, 0, 1, 94, 258)"><g clip-path="url(#7edaa5a3bb)"><g fill="#0052d4" fill-opacity="1"><g transform="translate(1.357517, 57.736478)"><g><path d="M 30.90625 -23.5625 L 30.90625 -15.625 L 14 -15.625 L 14 0 L 4.375 0 L 4.375 -40.828125 L 34 -40.828125 L 34 -32.890625 L 14 -32.890625 L 14 -23.5625 Z M 30.90625 -23.5625 "/></g></g></g><g fill="#0052d4" fill-opacity="1"><g transform="translate(33.20328, 57.736478)"><g><path d="M 33.015625 0 L 4.375 0 L 4.375 -40.828125 L 14 -40.828125 L 14 -7.9375 L 33.015625 -7.9375 Z M 33.015625 0 "/></g></g></g><g fill="#0052d4" fill-opacity="1"><g transform="translate(64.057492, 57.736478)"><g><path d="M 23.09375 -6.765625 C 24.726562 -6.765625 26.117188 -7.015625 27.265625 -7.515625 C 28.410156 -8.023438 29.363281 -8.695312 30.125 -9.53125 C 30.882812 -10.375 31.476562 -11.300781 31.90625 -12.3125 C 32.332031 -13.320312 32.648438 -14.332031 32.859375 -15.34375 C 33.078125 -16.351562 33.210938 -17.304688 33.265625 -18.203125 C 33.328125 -19.097656 33.359375 -19.835938 33.359375 -20.421875 C 33.359375 -21.035156 33.328125 -21.800781 33.265625 -22.71875 C 33.210938 -23.632812 33.078125 -24.597656 32.859375 -25.609375 C 32.648438 -26.617188 32.332031 -27.628906 31.90625 -28.640625 C 31.476562 -29.648438 30.882812 -30.550781 30.125 -31.34375 C 29.363281 -32.144531 28.410156 -32.796875 27.265625 -33.296875 C 26.117188 -33.804688 24.726562 -34.0625 23.09375 -34.0625 C 21.769531 -34.0625 20.492188 -33.859375 19.265625 -33.453125 C 18.046875 -33.046875 16.957031 -32.328125 16 -31.296875 C 15.050781 -30.265625 14.296875 -28.863281 13.734375 -27.09375 C 13.171875 -25.320312 12.890625 -23.097656 12.890625 -20.421875 C 12.890625 -17.734375 13.171875 -15.515625 13.734375 -13.765625 C 14.296875 -12.015625 15.050781 -10.625 16 -9.59375 C 16.957031 -8.5625 18.046875 -7.832031 19.265625 -7.40625 C 20.492188 -6.976562 21.769531 -6.765625 23.09375 -6.765625 Z M 23.09375 1.171875 C 19.050781 1.171875 15.707031 0.488281 13.0625 -0.875 C 10.414062 -2.238281 8.304688 -3.96875 6.734375 -6.0625 C 5.160156 -8.164062 4.050781 -10.488281 3.40625 -13.03125 C 2.769531 -15.582031 2.453125 -18.046875 2.453125 -20.421875 C 2.453125 -22.785156 2.769531 -25.238281 3.40625 -27.78125 C 4.050781 -30.332031 5.160156 -32.65625 6.734375 -34.75 C 8.304688 -36.851562 10.414062 -38.585938 13.0625 -39.953125 C 15.707031 -41.316406 19.050781 -42 23.09375 -42 C 26.59375 -42 29.644531 -41.453125 32.25 -40.359375 C 34.851562 -39.273438 37 -37.769531 38.6875 -35.84375 C 40.382812 -33.914062 41.648438 -31.628906 42.484375 -28.984375 C 43.328125 -26.335938 43.75 -23.484375 43.75 -20.421875 C 43.75 -17.304688 43.328125 -14.4375 42.484375 -11.8125 C 41.648438 -9.1875 40.382812 -6.910156 38.6875 -4.984375 C 37 -3.054688 34.851562 -1.546875 32.25 -0.453125 C 29.644531 0.628906 26.59375 1.171875 23.09375 1.171875 Z M 23.09375 1.171875 "/></g></g></g><g fill="#0052d4" fill-opacity="1"><g transform="translate(107.451957, 57.736478)"><g><path d="M 14 -22.515625 L 22.8125 -22.515625 C 24.164062 -22.515625 25.25 -22.6875 26.0625 -23.03125 C 26.882812 -23.382812 27.507812 -23.820312 27.9375 -24.34375 C 28.363281 -24.875 28.644531 -25.429688 28.78125 -26.015625 C 28.914062 -26.597656 28.984375 -27.140625 28.984375 -27.640625 C 28.984375 -29.671875 28.421875 -31.050781 27.296875 -31.78125 C 26.171875 -32.519531 24.554688 -32.890625 22.453125 -32.890625 L 14 -32.890625 Z M 4.375 -40.828125 L 25.25 -40.828125 C 25.957031 -40.828125 26.785156 -40.785156 27.734375 -40.703125 C 28.691406 -40.628906 29.679688 -40.457031 30.703125 -40.1875 C 31.734375 -39.914062 32.753906 -39.515625 33.765625 -38.984375 C 34.773438 -38.460938 35.679688 -37.773438 36.484375 -36.921875 C 37.285156 -36.066406 37.925781 -35.003906 38.40625 -33.734375 C 38.894531 -32.472656 39.140625 -30.96875 39.140625 -29.21875 C 39.140625 -27.507812 38.894531 -26.050781 38.40625 -24.84375 C 37.925781 -23.644531 37.320312 -22.65625 36.59375 -21.875 C 35.875 -21.09375 35.097656 -20.476562 34.265625 -20.03125 C 33.429688 -19.582031 32.679688 -19.242188 32.015625 -19.015625 L 32.015625 -18.890625 C 33.421875 -18.460938 34.507812 -17.847656 35.28125 -17.046875 C 36.0625 -16.253906 36.644531 -15.378906 37.03125 -14.421875 C 37.425781 -13.472656 37.660156 -12.515625 37.734375 -11.546875 C 37.816406 -10.578125 37.859375 -9.722656 37.859375 -8.984375 C 37.890625 -7.703125 37.914062 -6.601562 37.9375 -5.6875 C 37.957031 -4.769531 38.015625 -3.976562 38.109375 -3.3125 C 38.210938 -2.65625 38.367188 -2.066406 38.578125 -1.546875 C 38.796875 -1.023438 39.082031 -0.507812 39.4375 0 L 29.625 0 C 29.195312 -0.625 28.894531 -1.226562 28.71875 -1.8125 C 28.550781 -2.394531 28.4375 -3.0625 28.375 -3.8125 C 28.320312 -4.570312 28.273438 -5.46875 28.234375 -6.5 C 28.191406 -7.53125 28.113281 -8.820312 28 -10.375 C 27.882812 -11.582031 27.535156 -12.503906 26.953125 -13.140625 C 26.367188 -13.785156 25.707031 -14.253906 24.96875 -14.546875 C 24.226562 -14.835938 23.515625 -14.992188 22.828125 -15.015625 C 22.148438 -15.035156 21.675781 -15.046875 21.40625 -15.046875 L 14 -15.046875 L 14 0 L 4.375 0 Z M 4.375 -40.828125 "/></g></g></g><g fill="#0052d4" fill-opacity="1"><g transform="translate(146.355252, 57.736478)"><g><path d="M 24.90625 -14.578125 L 19.65625 -30.15625 L 14.296875 -14.578125 Z M 24.5 -40.828125 L 39.84375 0 L 29.625 0 L 27 -7.640625 L 12.1875 -7.640625 L 9.625 0 L -0.53125 0 L 14.75 -40.828125 Z M 24.5 -40.828125 "/></g></g></g></g></g></svg>