<svg xmlns="http://www.w3.org/2000/svg" xmlns:xlink="http://www.w3.org/1999/xlink" width="2000" zoomAndPan="magnify" viewBox="0 0 1500 1499.999933" height="2000" preserveAspectRatio="xMidYMid meet" version="1.0"><path fill="#ffffff" d="M 1405.726562 750 C 1419.21875 724.484375 1430.253906 697.46875 1437.910156 668.90625 C 1464.625 569.230469 1450.902344 465.136719 1399.316406 375.777344 C 1347.726562 286.417969 1264.429688 222.5 1164.765625 195.796875 C 1136.09375 188.117188 1107.070312 184.171875 1078.125 183.117188 C 1009.722656 74.277344 888.910156 1.554688 751.144531 1.554688 C 613.390625 1.554688 492.582031 74.269531 424.179688 183.097656 C 395.230469 184.15625 366.203125 188.105469 337.523438 195.796875 C 237.863281 222.5 154.5625 286.417969 102.976562 375.777344 C 51.386719 465.136719 37.664062 569.230469 64.378906 668.90625 C 72.035156 697.46875 83.074219 724.484375 96.566406 750 C 83.074219 775.515625 72.035156 802.53125 64.378906 831.09375 C 37.664062 930.746094 51.386719 1034.863281 102.976562 1124.222656 C 154.5625 1213.582031 237.863281 1277.5 337.523438 1304.214844 C 366.242188 1311.902344 395.304688 1316.03125 424.285156 1317.078125 C 492.707031 1425.8125 613.464844 1498.445312 751.144531 1498.445312 C 888.828125 1498.445312 1009.582031 1425.8125 1078.003906 1317.078125 C 1106.984375 1316.03125 1136.046875 1311.902344 1164.765625 1304.214844 C 1264.429688 1277.5 1347.726562 1213.582031 1399.316406 1124.222656 C 1450.902344 1034.863281 1464.625 930.746094 1437.910156 831.09375 C 1430.253906 802.53125 1419.21875 775.515625 1405.726562 750 Z M 1152.269531 242.433594 C 1239.460938 265.800781 1312.363281 321.738281 1357.488281 399.921875 C 1402.640625 478.117188 1414.640625 569.195312 1391.277344 656.410156 C 1387.105469 671.980469 1381.539062 686.902344 1375.347656 701.484375 C 1344.214844 659.347656 1304.660156 623.523438 1257.921875 596.535156 C 1208.746094 568.144531 1155.855469 552.1875 1102.714844 547.019531 C 1124.8125 498.414062 1137.441406 444.628906 1137.441406 387.847656 C 1137.441406 332.910156 1125.734375 280.710938 1104.96875 233.34375 C 1120.796875 235.273438 1136.597656 238.234375 1152.269531 242.433594 Z M 1050.375 1268.824219 C 996.578125 1266.59375 943.738281 1251.511719 895.769531 1223.789062 C 846.546875 1195.371094 807.320312 1156.269531 779.011719 1111.179688 C 792.257812 1085.953125 803.097656 1059.261719 810.65625 1031.066406 C 825.351562 976.242188 827.367188 920.140625 818.019531 865.816406 C 860.390625 901.070312 909.980469 927.367188 964.804688 942.0625 C 993.035156 949.621094 1021.585938 953.742188 1050.085938 954.878906 C 1074.929688 1001.902344 1089.152344 1055.371094 1089.152344 1112.152344 C 1089.152344 1168.695312 1075.023438 1221.941406 1050.375 1268.824219 Z M 413.136719 1112.152344 C 413.136719 1055.371094 427.359375 1001.90625 452.199219 954.882812 C 480.699219 953.742188 509.273438 949.621094 537.507812 942.0625 C 592.4375 927.339844 642.109375 900.96875 684.527344 865.617188 C 670.097656 950.050781 684.308594 1036.453125 723.632812 1111.222656 C 694.730469 1157.238281 654.914062 1195.855469 606.519531 1223.789062 C 558.558594 1251.503906 505.722656 1266.597656 451.917969 1268.828125 C 427.265625 1221.945312 413.136719 1168.695312 413.136719 1112.152344 Z M 451.890625 231.230469 C 505.695312 233.457031 558.546875 248.507812 606.519531 276.210938 C 654.914062 304.148438 694.726562 342.765625 723.628906 388.78125 C 684.308594 463.546875 670.097656 549.949219 684.527344 634.386719 C 642.109375 599.03125 592.4375 572.664062 537.507812 557.949219 C 509.300781 550.386719 480.757812 546.425781 452.277344 545.28125 C 427.386719 498.21875 413.136719 444.691406 413.136719 387.847656 C 413.136719 331.328125 427.257812 278.101562 451.890625 231.230469 Z M 1089.152344 387.847656 C 1089.152344 444.800781 1074.859375 498.429688 1049.875 545.558594 C 965.582031 548.953125 883.789062 579.839844 817.96875 634.484375 C 827.378906 580.078125 825.375 523.875 810.65625 468.945312 C 803.097656 440.75 792.253906 414.054688 779.007812 388.824219 C 807.320312 343.734375 846.546875 304.628906 895.769531 276.210938 C 943.746094 248.507812 996.59375 233.457031 1050.402344 231.230469 C 1075.03125 278.101562 1089.152344 331.328125 1089.152344 387.847656 Z M 1016.277344 596.839844 C 963.757812 663.328125 886.90625 709.460938 799.214844 722.035156 C 853.933594 652.429688 932.484375 609.089844 1016.277344 596.839844 Z M 764.019531 481.441406 C 783.132812 552.792969 778.1875 626.617188 751.175781 693.972656 C 718.382812 611.820312 719.96875 522.332031 751.273438 443.710938 C 756.144531 455.980469 760.550781 468.496094 764.019531 481.441406 Z M 702.644531 721.96875 C 615.035156 709.289062 538.28125 663.113281 485.84375 596.617188 C 498.949219 598.535156 512.027344 601.105469 525.011719 604.585938 C 596.347656 623.703125 657.824219 664.902344 702.644531 721.96875 Z M 618.003906 750 C 537.527344 779.691406 469.695312 835.253906 424.550781 906.789062 C 370.257812 904.773438 316.910156 889.609375 268.511719 861.640625 C 220.457031 833.894531 180.898438 795.59375 152.046875 750 C 180.898438 704.40625 220.457031 666.105469 268.511719 638.359375 C 316.925781 610.40625 370.304688 595.339844 424.621094 593.332031 C 469.769531 664.808594 537.574219 720.324219 618.003906 750 Z M 702.648438 778.03125 C 657.828125 835.105469 596.351562 876.308594 525.011719 895.425781 C 512.058594 898.898438 499.011719 901.339844 485.9375 903.257812 C 538.375 836.828125 615.089844 790.703125 702.648438 778.03125 Z M 751.175781 806.027344 C 778.1875 873.382812 783.132812 947.222656 764.019531 1018.570312 C 760.550781 1031.515625 756.144531 1044.023438 751.273438 1056.292969 C 719.96875 977.671875 718.378906 888.179688 751.175781 806.027344 Z M 799.652344 778.035156 C 887.199219 790.703125 963.914062 836.824219 1016.351562 903.253906 C 1003.289062 901.332031 990.25 898.894531 977.300781 895.425781 C 905.945312 876.308594 844.480469 835.109375 799.652344 778.035156 Z M 884.285156 750 C 964.644531 720.351562 1032.402344 664.910156 1077.546875 593.527344 C 1130.867188 595.453125 1184.449219 609.882812 1233.777344 638.359375 C 1281.835938 666.105469 1321.390625 704.40625 1350.242188 750 C 1321.390625 795.59375 1281.835938 833.894531 1233.777344 861.640625 C 1185.378906 889.605469 1132.042969 904.773438 1077.738281 906.789062 C 1032.59375 835.253906 964.761719 779.691406 884.285156 750 Z M 751.144531 49.839844 C 861.453125 49.839844 959.285156 103.195312 1021.019531 185.191406 C 969.035156 191.105469 918.3125 207.445312 871.625 234.382812 C 822.511719 262.742188 782.277344 300.515625 751.25 343.898438 C 719.648438 299.800781 679.050781 262.324219 630.664062 234.382812 C 583.980469 207.433594 533.265625 191.085938 481.289062 185.167969 C 543.023438 103.183594 640.847656 49.839844 751.144531 49.839844 Z M 111.015625 656.410156 C 87.648438 569.195312 99.652344 478.117188 144.800781 399.921875 C 189.929688 321.738281 262.832031 265.800781 350.019531 242.433594 C 365.691406 238.234375 381.496094 235.273438 397.324219 233.34375 C 376.558594 280.710938 364.851562 332.910156 364.851562 387.847656 C 364.851562 444.566406 377.445312 498.292969 399.496094 546.855469 C 345.515625 552.175781 292.769531 568.601562 244.371094 596.535156 C 197.632812 623.523438 158.078125 659.347656 126.941406 701.484375 C 120.75 686.902344 115.1875 671.980469 111.015625 656.410156 Z M 350.019531 1257.578125 C 262.832031 1234.210938 189.929688 1178.261719 144.800781 1100.078125 C 99.652344 1021.894531 87.648438 930.792969 111.015625 843.578125 C 115.1875 828.011719 120.75 813.09375 126.9375 798.515625 C 158.074219 840.65625 197.628906 876.484375 244.371094 903.464844 C 292.742188 931.398438 345.445312 948.007812 399.40625 953.335938 C 377.410156 1001.847656 364.851562 1055.511719 364.851562 1112.152344 C 364.851562 1166.96875 376.5 1219.066406 397.179688 1266.347656 C 381.402344 1264.417969 365.644531 1261.765625 350.019531 1257.578125 Z M 751.144531 1450.160156 C 640.886719 1450.160156 543.089844 1396.851562 481.351562 1314.917969 C 533.3125 1308.992188 584.003906 1292.542969 630.664062 1265.617188 C 679.054688 1237.679688 719.652344 1200.203125 751.253906 1156.105469 C 782.28125 1199.488281 822.511719 1237.257812 871.625 1265.617188 C 918.285156 1292.558594 968.976562 1309 1020.9375 1314.921875 C 959.199219 1396.855469 861.40625 1450.160156 751.144531 1450.160156 Z M 1357.488281 1100.078125 C 1312.363281 1178.261719 1239.460938 1234.210938 1152.269531 1257.578125 C 1136.648438 1261.765625 1120.894531 1264.414062 1105.117188 1266.34375 C 1125.796875 1219.0625 1137.441406 1166.96875 1137.441406 1112.152344 C 1137.441406 1055.511719 1124.882812 1001.847656 1102.886719 953.335938 C 1156.84375 948.007812 1209.566406 931.378906 1257.921875 903.464844 C 1304.660156 876.484375 1344.214844 840.65625 1375.351562 798.515625 C 1381.542969 813.09375 1387.105469 828.011719 1391.277344 843.578125 C 1414.640625 930.792969 1402.640625 1021.894531 1357.488281 1100.078125 Z M 1357.488281 1100.078125 " fill-opacity="1" fill-rule="nonzero"/></svg>